<svg width="85" height="85" fill="none" xmlns="http://www.w3.org/2000/svg"><g clip-path="url(#a)"><g clip-path="url(#b)"><mask id="c" style="mask-type:luminance" maskUnits="userSpaceOnUse" x="0" y="27" width="77" height="59"><path d="M76.108 27.325H.94v57.742h75.166V27.325Z" fill="#fff"/></mask><g mask="url(#c)"><path d="m29.846 80.224 46.26-52.9-50.778 36.671 4.518 16.229Z" fill="#912828"/><path d="M76.108 27.323.94 54.893l24.389 9.102 4.517 16.229 3.491-11.567 25.468 16.408 17.302-57.742Z" fill="#C73736"/><path d="m25.328 63.995 50.778-36.672-42.77 41.334-3.49 11.567-4.518-16.229Z" fill="#912727"/><path d="m58.805 85.065-9.763-31.584-15.704 15.177 25.467 16.407Z" fill="#C73736"/><path style="mix-blend-mode:multiply" opacity=".7" d="m58.805 85.065-9.763-31.584-15.704 15.177 25.467 16.407Z" fill="url(#d)"/><path d="m.941 54.893 42.787-4.188-18.398 13.29L.94 54.893Z" fill="#C73736"/><path style="mix-blend-mode:multiply" opacity=".7" d="m.941 54.893 42.787-4.188-18.398 13.29L.94 54.893Z" fill="url(#e)"/><path style="mix-blend-mode:multiply" d="m43.726 50.705.86 7.08-11.25 10.871-3.49 11.567-4.518-16.228 18.398-13.29Z" fill="url(#f)"/><path style="mix-blend-mode:multiply" opacity=".7" d="m43.726 50.705.86 7.08-11.25 10.871-3.49 11.567-4.518-16.228 18.398-13.29Z" fill="url(#g)"/><path d="M25.328 63.995c2.078-1.568 4.177-3.112 6.265-4.671l6.3-4.632 12.655-9.208 12.732-9.126 6.394-4.534c2.144-1.499 4.274-3.009 6.428-4.498-2.078 1.568-4.177 3.112-6.265 4.67l-6.3 4.632-12.655 9.209-12.731 9.126-6.394 4.534c-2.144 1.498-4.274 3.009-6.429 4.498Z" fill="#DA7B7B"/><path d="M43.728 50.705c.279 1.167.453 2.346.603 3.525.139 1.18.25 2.364.254 3.556-.279-1.167-.453-2.343-.602-3.526-.136-1.179-.251-2.364-.255-3.555Z" fill="#DA7B7B" opacity=".5"/></g></g></g><defs><linearGradient id="d" x1="54.583" y1="69.132" x2="49.004" y2="70.687" gradientUnits="userSpaceOnUse"><stop stop-color="#C73736"/><stop offset=".01" stop-color="#C73736" stop-opacity=".98"/><stop offset=".2" stop-color="#C73736" stop-opacity=".69"/><stop offset=".38" stop-color="#C73736" stop-opacity=".44"/><stop offset=".55" stop-color="#C73736" stop-opacity=".25"/><stop offset=".71" stop-color="#C73736" stop-opacity=".11"/><stop offset=".85" stop-color="#C73736" stop-opacity=".03"/><stop offset=".95" stop-color="#C73736" stop-opacity="0"/></linearGradient><linearGradient id="e" x1="21.877" y1="50.164" x2="22.712" y2="56.458" gradientUnits="userSpaceOnUse"><stop stop-color="#C73736"/><stop offset=".47" stop-color="#C73736" stop-opacity=".47"/><stop offset=".8" stop-color="#C73736" stop-opacity=".13"/><stop offset=".95" stop-color="#C73736" stop-opacity="0"/></linearGradient><linearGradient id="f" x1="38.293" y1="71.434" x2="35.926" y2="59.825" gradientUnits="userSpaceOnUse"><stop stop-color="#912727"/><stop offset=".99" stop-color="#912727" stop-opacity="0"/></linearGradient><linearGradient id="g" x1="50.914" y1="63.332" x2="42.37" y2="65.023" gradientUnits="userSpaceOnUse"><stop stop-color="#912727"/><stop offset=".99" stop-color="#912727" stop-opacity="0"/></linearGradient><clipPath id="a"><path fill="#fff" transform="translate(.5 .567)" d="M0 0h84v84H0z"/></clipPath><clipPath id="b"><path fill="#fff" transform="translate(.5 27.325)" d="M0 0h76.05v57.742H0z"/></clipPath></defs></svg>