<svg version="1.0" xmlns="http://www.w3.org/2000/svg" width="933.333" height="933.333" viewBox="0 0 700 700"><path d="M55.6 1.6C48.4 3 37 7.9 30.3 12.4c-10 6.8-20.9 20.4-25.4 31.7C-.2 57.2 0 42.8 0 350c0 308.5-.3 293.4 5.1 306.2 5 11.8 15.3 24.6 25.2 31.4 6.7 4.5 18 9.2 25.9 10.8 6.9 1.4 39.1 1.6 293.8 1.6 257.3 0 286.9-.2 293.8-1.6 27.8-5.7 48.9-26.8 54.6-54.6 1.4-6.9 1.6-36.5 1.6-293.8s-.2-286.9-1.6-293.8C692.7 28.3 671 6.7 643.3 1.4 632.4-.7 66.2-.5 55.6 1.6zm321.6 197.9c36.4 8.4 75.6 22.4 102.8 36.7 16.8 8.9 39.8 23.4 46.7 29.5l3.1 2.8-4.9 15c-2.8 8.2-7.3 21.6-10.1 29.7l-5 14.8-6.2.1c-3.3 0-9.4.4-13.4.8-4.7.4-7.1.3-6.9-.3.4-1.3 3.7-2 15.6-3.7 5.1-.7 8.8-1.5 8-1.8-.7-.2-5.7.2-11.1.9-5.5.7-10.1 1-10.4.7-.3-.3 3.3-11.1 8-24s8.6-23.8 8.6-24.4c0-2.3-31.3-20.9-56.9-33.7-38.3-19.2-73.3-28.7-94.7-25.7-23 3.2-49 12.2-77.8 26.9-16.5 8.4-45.8 25.4-51.1 29.6l-2.6 2.1 5.9 17.5c5.7 16.8 21.5 59.8 23.3 63.1.9 1.7-1.9 2.8-15.8 5.9-2.9.7-5.3 1.6-5.3 2 0 .4 5-.3 11.2-1.6 8.8-1.9 11.3-2.2 11.9-1.2.5.7.5 1.6.1 1.9-1 .9-12.6 3.6-18.8 4.4l-5.2.7-4-10.4c-12.2-31.4-30.6-86.3-30-89.5.4-2.1 23.9-18.1 40.5-27.5 27.7-15.7 65-29.9 104.3-39.8 23.9-6 21.2-5.9 40.2-1.5zm-189.9 98.7c4.8 13.8 8.6 25.2 8.4 25.3-.5.4-94 18.5-94.2 18.3-1.3-1.5-24.5-38.1-24.3-38.3.7-.6 98.4-30.4 99.9-30.4 1.2-.1 3.7 6 10.2 25.1zm384.8-16.6c15.6 4.7 37.9 11.4 49.4 15 11.6 3.5 21.3 6.6 21.8 6.7.4.1-1.5 3.8-4.3 8.1-3.5 5.6-5.7 8.1-7.2 8.3-4.2.6-4.8 1.2-4.8 4.8 0 2.4.4 3.4 1.1 2.9.6-.3-.8 2.2-3 5.7-2.3 3.5-4.5 7-5 7.7-.6 1.1-1.9 1.1-6.8.2-3.3-.7-6-1.7-6-2.4 0-.6-.1-3.7-.1-6.9l-.2-5.8-4.7-2.1c-8.9-4-41.4-3.5-58.1.8-4.7 1.2-6.8 1.3-12.4.3-3.8-.7-6.8-1.5-6.8-1.7 0-.6 7.8-23.2 13.8-40 2-5.6 3.9-10.2 4.2-10.2.3 0 13.4 3.9 29.1 8.6zm-273 44.4c1.6 0 2.9.4 2.9.8 0 .9-11.1-.5-12-1.5-.3-.3 1-.3 2.9.1 1.8.3 4.6.6 6.2.6zm-13.4 5.6c-.3.3-1.2.4-1.9.1-.8-.3-.5-.6.6-.6 1.1-.1 1.7.2 1.3.5zm-83.7 9.8c0 .1 2.5 7.4 5.5 16.1 3 8.6 5.5 15.8 5.5 16 0 .1-3.9.5-8.6.9-4.7.3-16 2.2-25.2 4-15.6 3.2-25.1 4.6-44.8 6.4l-8.1.8-6.6-11.6c-3.7-6.3-6.9-12.2-7.2-13-.4-1.2 7-3.1 42.2-10.7 39.5-8.4 47.3-9.9 47.3-8.9zm338 3.4c41.8 8.7 69 14.7 69 15.3 0 .6-17.7 31.9-18.5 32.7-.3.4-84.8-9.8-85.3-10.3-.1-.1 2.7-8.7 6.4-19.1 3.6-10.4 6.8-19.7 7.1-20.7.3-.9 1-1.7 1.7-1.7.6 0 9.4 1.7 19.6 3.8zm-40.7 11.8c-.5 1.3-3.1 1.1-16.3-.7-7.9-1.2-9.3-1.6-8.6-2.7.8-1.3 25.4 2.1 24.9 3.4zm-113.8 12.5c8.1 1 28.3 6.5 27.3 7.4-.2.2-3.9-.7-8.1-2-19.1-6.1-38.4-6-71.4.4-27.7 5.4-30.4 5.1-4.3-.4 29.7-6.4 40.3-7.4 56.5-5.4zm-20.2 3.6c-.7.2-1.9.2-2.5 0-.7-.3-.2-.5 1.2-.5s1.9.2 1.3.5zm-12.8 1.9c-14.6 2.7-14.9 3-3.5 3.7 5.8.3 19.6 2 30.7 3.6 22.9 3.5 30.3 3.7 45.7 1.6 8.4-1.2 11.7-1.3 14.9-.4 5 1.3 9.3 4.2 10.8 7.2 1.1 2.1 1.1 2.1-1.4-.1-2.9-2.8-8.6-3.3-11.3-1.1-2.2 1.8-4.4 7.1-4.4 10.7 0 1.6 1.1 5 2.4 7.5l2.3 4.7h-16.1c-14.7 0-36.3 1.1-47.6 2.5l-4.5.5 4.3-3.9c6.8-6.3 9.5-7.1 21.9-6.9l10.8.1-11.2.7c-10.1.6-11.7 1-15.3 3.5-5.1 3.5-6.1 5-2.9 4.2 3.3-.9 45.8-3 52.5-2.5 3 .1 5.4.2 5.4 0 0-.1-.8-1.4-1.7-2.8-2.1-3.2-2.3-10.8-.4-15.3 1-2.3 2.7-3.9 5.5-5.1l4-1.8-3.8-.7c-2-.4-7.7-.2-12.5.4-13.8 1.8-28 1.3-47.1-1.5-11.4-1.7-24.3-2.8-37-3.3l-19.5-.6 7-1.8c9.8-2.5 21.3-4.5 26-4.5 2.8 0 1.7.4-4 1.4zm-45.2 5.1c-.7.2-1.9.2-2.5 0-.7-.3-.2-.5 1.2-.5s1.9.2 1.3.5zm15.5 4.2c7.9.5 14.6 1.2 15 1.6.4.4-.5 1.7-2 3-3.4 2.9-11.1 4-18.8 2.7l-5.5-1 7.5-.1c4.1-.1 9.3-.6 11.4-1.2 6.8-1.9 2.2-2.8-16.8-3.6-9.7-.3-17.6-1-17.6-1.5 0-1 7.9-1 26.8.1zm47.3 4.8c3.4 3.3 5.7 10.9 3.9 12.7-.7.7-1 .1-1-1.8 0-1.5-.7-4.3-1.6-6.2-4.5-9.4-18.6-7.8-22.8 2.6-2.1 5.3-2 8.7.3 13.3l1.9 3.7h-4.3c-3 0-6.4-1.1-11.2-3.6-9.7-5-10-5.9-.7-1.9 9 3.9 13 4.5 11.9 1.7-.4-.9-.9-3.7-1.2-6.2-.6-5.7 2.7-12.5 7.7-15.8 5.1-3.4 12.9-2.7 17.1 1.5zM317 396c5.1 2.6 5.2 3.4.3 1.3-2.1-.8-7.8-1.9-12.8-2.3l-9-.7 8.8-.2c7-.1 9.6.3 12.7 1.9zm-24 6.5c3 2.1 5.8 4.3 6.2 4.9 2.4 3.5 1.3 3.6-25.9 3.4l-26.8-.2 19.5-.6c10.7-.4 22.1-.8 25.3-.9 3.2 0 5.7-.5 5.5-1-.1-.4-2.7-2.8-5.7-5.2-3-2.4-5.6-5.1-5.9-5.9-.3-1.2-.2-1.2.9.1.8.9 3.9 3.4 6.9 5.4zm58.3-2.3c-.7 7.5 5.2 13.8 11.7 12.3 1.9-.4 2.1-.3 1 .5-3.9 2.6-10.4.3-12.9-4.7-1.2-2.3-1.5-8.2-.5-10.7 1-2.6 1.2-1.9.7 2.6zm90.1 7.5c2.2 1.7 4.8 1.9 30.2 2.2 15.3.1 28.1.4 28.3.7.2.2-12.6.4-28.6.4-28.8 0-29 0-31-2.3-3-3.2-4.3-6.2-4.2-9.4 0-2.3.3-2 1.5 1.9.8 2.6 2.5 5.5 3.8 6.5zm-26.1-2c-1.3.2-3.3.2-4.5 0-1.3-.2-.3-.4 2.2-.4s3.5.2 2.3.4zM246 411c0 .6-4.5.9-11.7.8l-11.8-.2 11.5-.6c6.3-.3 11.6-.7 11.8-.8.1-.1.2.2.2.8zm48.1 33.2c10.5 6.6 29.3 13.2 53.6 18.8l5.2 1.2 1.1 5.6c.6 3.2 1.4 6.5 1.7 7.5.5 2.1 2 2.2-17.8-1.3-21.3-3.7-42.4-11.9-59.4-23-7.6-5-19.7-14.5-20.3-15.9-.1-.4 4.4-2.1 10-3.8l10.3-3.1 5.1 5.3c2.8 3 7.6 6.9 10.5 8.7zm159.3-11.1 10.1 3.1-4.9 4.5c-19.4 17.5-47.6 30.5-77.7 35.8-12.9 2.3-12.6 2.4-13.4-3.8-.3-2.8-.8-5.9-1.1-6.7-.3-1.2 2.6-2.2 13.4-4.9 17.5-4.2 35.1-10.1 42.6-14.2 3.3-1.8 9.2-6.3 13-10 3.9-3.8 7.3-6.9 7.5-6.9.2 0 4.9 1.4 10.5 3.1zm-90.7 40.1c-.3.8-.6.5-.6-.6-.1-1.1.2-1.7.5-1.3.3.3.4 1.2.1 1.9z"/></svg>