<?xml version="1.0" encoding="utf-8"?><svg viewBox="0 0 57 57" xmlns="http://www.w3.org/2000/svg" xmlns:xlink="http://www.w3.org/1999/xlink"><style>:root>svg{display:none}:root>svg:target{display:block}</style><svg viewBox="0 0 40 40" id="arrow-left" xmlns="http://www.w3.org/2000/svg"><path d="M15.56 19.715a.75.75 0 01.157-.247l3.75-3.75a.752.752 0 111.066 1.064l-2.476 2.468h5.693a.75.75 0 110 1.5h-5.692l2.474 2.468a.75.75 0 01-.244 1.229.751.751 0 01-.82-.165l-3.75-3.75a.75.75 0 01-.158-.247.75.75 0 010-.57z"/></svg><svg viewBox="0 0 40 40" id="arrow-right" xmlns="http://www.w3.org/2000/svg"><path d="M24.44 19.715a.75.75 0 00-.158-.247l-3.75-3.75a.752.752 0 10-1.064 1.064l2.474 2.468H16.25a.75.75 0 100 1.5h5.692l-2.474 2.468a.75.75 0 00.244 1.229.751.751 0 00.82-.165l3.75-3.75a.75.75 0 00.158-.247.75.75 0 000-.57z"/></svg><svg viewBox="0 0 40 40" id="burger" xmlns="http://www.w3.org/2000/svg"><path d="M11.667 14.167a.833.833 0 100 1.666h16.665a.833.833 0 100-1.666H11.666zm-.087 5a.835.835 0 00.087 1.668h16.665a.834.834 0 100-1.669H11.666a.836.836 0 00-.087 0zm0 5.001a.835.835 0 00.087 1.667h16.665a.833.833 0 100-1.667H11.666a.784.784 0 00-.087 0z"/></svg><svg viewBox="0 0 57 57" id="close" xmlns="http://www.w3.org/2000/svg"><path d="M30.488 28.167l7.394-7.382a1.179 1.179 0 00-1.667-1.667l-7.382 7.394-7.382-7.394a1.178 1.178 0 10-1.666 1.667l7.393 7.382-7.393 7.382a1.172 1.172 0 000 1.666 1.174 1.174 0 001.666 0l7.382-7.394 7.382 7.394a1.174 1.174 0 001.667 0 1.174 1.174 0 000-1.666l-7.394-7.382z"/></svg><svg viewBox="0 0 40 40" id="hyundai" xmlns="http://www.w3.org/2000/svg"><path fill-rule="evenodd" clip-rule="evenodd" d="M22.8 22.233c.223 1.159-.384 2.12-.888 3.055-.56.868-1.485 1.615-2.596 1.503a26.359 26.359 0 01-7.193-1.102.444.444 0 01-.261-.187c-.047-.13.019-.252.112-.336 2.064-1.672 4.52-2.447 6.95-3.26.905-.261 1.867-.542 2.885-.41.42.055.84.345.99.737zm8.508-4.95c1.159.953 2.205 2.251 1.85 3.82-.58 2.317-3.101 3.55-5.11 4.334-1.092.365-2.194.738-3.39.85-.075-.009-.196.01-.215-.102l.028-.131c1.7-1.915 2.989-4.063 4.12-6.24a52.101 52.101 0 001.457-2.98.475.475 0 01.205-.139c.42.037.72.364 1.055.588zM15.01 14.817l-.037.14c-2.457 2.793-4.072 6.034-5.604 9.256-.3.28-.589-.093-.86-.215-1.363-.896-2.596-2.344-2.241-4.063.57-2.241 2.876-3.436 4.8-4.249a18.02 18.02 0 013.578-.971c.13 0 .299-.02.364.102zm12.19.448c.14.075.308.103.392.243.075.159-.075.262-.159.365-1.933 1.513-4.147 2.353-6.407 3.091-1.15.28-2.308.785-3.587.505a1.19 1.19 0 01-.738-.56c-.318-.879.112-1.794.486-2.56.495-.962 1.373-2.092 2.587-2.11 2.615-.02 5.081.373 7.426 1.026zm3.231.075c1.98 1.084 4.223 2.989 3.989 5.53-.27 2.353-2.466 3.997-4.427 4.988-5.726 2.736-13.768 2.82-19.68.43-2-.832-4.242-2.261-5.082-4.41-.645-1.765.14-3.605 1.457-4.828 2.755-2.504 6.267-3.363 9.882-3.858 3.923-.476 8.052-.056 11.564 1.149.784.29 1.56.607 2.297 1z"/></svg><svg viewBox="0 0 36 37" id="instagram" xmlns="http://www.w3.org/2000/svg"><path d="M15.223 18.504a2.778 2.778 0 115.555 0 2.778 2.778 0 01-5.555 0zm-1.502 0a4.28 4.28 0 108.558 0 4.28 4.28 0 00-8.558 0zm7.728-4.449a1 1 0 102 0 1 1 0 00-2 0zm-6.816 11.232c-.812-.037-1.254-.172-1.547-.287a2.591 2.591 0 01-.959-.623 2.576 2.576 0 01-.623-.958c-.115-.294-.25-.735-.287-1.548-.04-.878-.049-1.142-.049-3.367 0-2.226.01-2.489.049-3.368.037-.812.173-1.253.287-1.547.151-.39.332-.667.623-.959.291-.291.569-.473.959-.623.293-.115.735-.25 1.547-.287.879-.04 1.143-.049 3.367-.049 2.226 0 2.489.01 3.368.049.813.037 1.254.173 1.548.287.389.15.666.332.958.623.292.291.472.57.624.959.114.293.25.735.286 1.547.04.88.049 1.142.049 3.368 0 2.224-.008 2.488-.049 3.367-.037.813-.173 1.254-.286 1.548a2.591 2.591 0 01-.624.958c-.291.291-.57.472-.958.623-.294.114-.735.25-1.548.287-.878.04-1.142.048-3.368.048-2.225 0-2.488-.008-3.367-.048zm-.068-15.066c-.888.04-1.494.181-2.023.387a4.09 4.09 0 00-1.477.961 4.077 4.077 0 00-.96 1.476c-.207.53-.348 1.136-.388 2.023-.041.889-.05 1.173-.05 3.436s.01 2.547.05 3.435c.04.888.181 1.493.387 2.023.213.548.498 1.013.961 1.476.464.463.928.748 1.477.962.53.206 1.135.346 2.023.387.889.04 1.172.05 3.435.05 2.264 0 2.547-.01 3.436-.05.887-.04 1.493-.181 2.023-.387a4.097 4.097 0 001.476-.962c.463-.463.748-.928.961-1.476.206-.53.348-1.135.387-2.023.04-.889.05-1.172.05-3.435s-.01-2.547-.05-3.436c-.04-.887-.18-1.493-.387-2.023a4.097 4.097 0 00-.96-1.476 4.088 4.088 0 00-1.476-.961c-.53-.206-1.137-.347-2.023-.387-.889-.04-1.173-.05-3.436-.05-2.264 0-2.547.009-3.437.05z"/></svg><svg viewBox="0 0 40 40" id="kia" xmlns="http://www.w3.org/2000/svg"><g clip-path="url(#ga)"><path d="M5.623 16.83c-1.469.93-1.622 1.048-1.789 1.382l-.092.187-.01 2.552c-.006 2.514-.006 2.552.06 2.667.055.083.134.15.222.191.154.076.173.076 1.952.076 1.443 0 1.825-.01 1.93-.048.072-.024.968-.58 1.988-1.23l1.858-1.183.3.312c.168.17.684.712 1.152 1.201.468.49.893.91.942.931.098.038 3.506.052 3.6.014a.073.073 0 00.053-.063c0-.02-.811-.899-1.802-1.951-1.243-1.32-1.799-1.934-1.786-1.969.027-.073 4.929-3.19 4.981-3.17.036.014.046.629.053 3.379.01 3.194.013 3.368.072 3.49a.568.568 0 00.18.207c.078.053.166.08.258.08l2.394.01c2.584.011 2.832 0 3.055-.12.055-.032 1.772-1.206 3.813-2.608 2.04-1.403 3.732-2.553 3.761-2.556.042-.003.052.299.065 2.705l.017 2.708.068.01c.105.018 2.97-1.826 3.127-2.01.226-.264.222-.201.222-3.035v-2.538l-.072-.152c-.134-.282-.114-.278-1.628-.278-1.233 0-1.335.007-1.462.07-.075.034-2.43 1.638-5.233 3.562-2.803 1.927-5.125 3.5-5.16 3.5-.066.003-.066-.025-.083-3.348-.016-3.263-.02-3.354-.081-3.486a.685.685 0 00-.157-.208c-.092-.073-.115-.073-2.862-.073h-2.77l-.213.125c-.117.07-2.253 1.424-4.748 3.01-2.496 1.59-4.553 2.89-4.573 2.89-.016 0-.036-.004-.039-.011-.006-.003-.016-1.375-.026-3.045-.016-3.007-.016-3.038-.082-3.045-.036-.007-.673.375-1.455.868z"/></g><defs><clipPath id="ga"><path transform="translate(3 15)" d="M0 0h34v10H0z"/></clipPath></defs></svg><svg viewBox="0 0 24 24" id="lower-right-arrow" xmlns="http://www.w3.org/2000/svg"><path d="M17 6a1 1 0 00-1 1v7.59l-8.29-8.3a1.004 1.004 0 10-1.42 1.42l8.3 8.29H7a1 1 0 100 2h10a.995.995 0 00.38-.08 1 1 0 00.54-.54A.997.997 0 0018 17V7a1 1 0 00-1-1z"/></svg><svg viewBox="0 0 40 40" id="mazda" xmlns="http://www.w3.org/2000/svg"><path fill-rule="evenodd" clip-rule="evenodd" d="M20 24.862c1.163.38 1.11-4.237 5.443-5.324 3.224-.814 4.228-1.25 4.65-2.281l.476-1.032s-.211 4.617-.898 6.953c-.687 2.281-2.061 5.92-9.671 6.03-7.663-.055-9.037-3.694-9.67-6.03-.688-2.336-.9-6.953-.9-6.953l.476 1.032c.476 1.032 1.427 1.412 4.65 2.281 4.334 1.087 4.281 5.704 5.444 5.324zm-3.593 5.866c1.056.218 2.325.272 3.593.272 1.268 0 2.537-.109 3.593-.272 2.167-.326 4.122-.923 5.338-1.847C31.785 26.817 33 23.287 33 19.484s-2.008-8.474-6.394-9.724c-.952-.271-1.956-.434-2.96-.543 0 0-.422-.054-1.057-.108C21.691 9.054 20.793 9 20 9c-.793 0-1.691 0-2.59.109a17.85 17.85 0 00-1.056.108c-1.004.109-2.061.272-2.96.543C9.061 10.956 7 15.681 7 19.484c0 3.802 1.268 7.279 4.07 9.397 1.215.87 3.17 1.521 5.337 1.847zM19.63 10.63h.74c1.11 0 3.33.163 5.707 1.032 3.382 1.25 2.801 2.879 2.801 2.879s-5.707 2.281-7.398 4.291c-1.057 1.25-1.374 1.956-1.48 2.336-.106-.38-.423-1.087-1.48-2.336-1.69-2.01-7.398-4.291-7.398-4.291s-.581-1.63 2.8-2.88c2.379-.868 4.598-1.031 5.708-1.031z"/></svg><svg viewBox="0 0 40 40" id="mitsubishi" xmlns="http://www.w3.org/2000/svg"><path fill-rule="evenodd" clip-rule="evenodd" d="M19.41 23.995L15.325 31H7l4.297-7.057 8.112.052zm1.18 0L24.675 31H33l-4.297-7.057-8.112.052zm-.536-1.141l4.082-6.85L20.054 9 20 9.052 19.946 9l-4.082 7.005 4.082 6.849.054-.052.054.052z"/></svg><svg viewBox="0 0 40 40" id="nissan" xmlns="http://www.w3.org/2000/svg"><path fill-rule="evenodd" clip-rule="evenodd" d="M4.23 18.36v4.7h1.43v-3.108l1.73 3.109h2.182v-4.7H8.368v3.335l-1.73-3.336H4.23zm6.395 4.7h1.655v-4.7h-1.655v4.7zm17.003-4.7h-1.88l-2.107 4.7h1.505l.376-.833h2.407l.452.834h1.505l-2.258-4.7zm-1.58 2.654l.677-1.365.678 1.365h-1.355zm4.214-2.654v4.7h1.43v-3.184l1.805 3.185h2.257v-4.7h-1.43v3.26l-1.58-3.26h-2.482zm-17.004 3.564v1.137h4.063c.903-.38.827-1.365.827-1.365v-.227c0-.91-.902-1.213-.902-1.213h-2.558v-.683h3.084V18.36h-3.385c-1.28.303-1.204 1.516-1.204 1.516v.228c.15 1.137 1.053 1.213 1.053 1.213h2.558v.607h-3.536zm5.417 0v1.137h4.063c.903-.38.828-1.365.828-1.365v-.227c0-.91-.904-1.213-.904-1.213h-2.557v-.683h3.084V18.36h-3.385c-1.28.303-1.204 1.516-1.204 1.516v.228c.15 1.137 1.053 1.213 1.053 1.213h2.558v.607h-3.536z"/><path d="M36.581 24.907a1.195 1.195 0 00.872-.378c.222-.234.36-.563.36-.938v-5.458a1.48 1.48 0 00-.374-.99 1.159 1.159 0 00-.858-.402H3.778c-.331 0-.635.154-.857.401a1.48 1.48 0 00-.374.99v5.46c0 .375.138.703.36.938a1.192 1.192 0 00.871.377h32.803zm1.27.005a1.737 1.737 0 01-1.27.548h-5.43c-.893 2.096-2.436 3.83-4.369 5.045-1.961 1.232-4.328 1.93-6.828 1.93-2.504 0-4.821-.698-6.748-1.908A11.662 11.662 0 018.76 25.46H3.78a1.737 1.737 0 01-1.27-.548 1.906 1.906 0 01-.51-1.32v-5.46c0-.527.197-1.012.514-1.363a1.7 1.7 0 011.264-.58h4.48c.982-2.434 2.598-4.484 4.635-5.924A12.29 12.29 0 0120.03 8c2.64 0 5.11.825 7.162 2.275 2.022 1.43 3.638 3.464 4.61 5.913h4.78a1.7 1.7 0 011.264.58c.318.352.515.837.515 1.365v5.459c0 .525-.195.987-.51 1.32zm-29-8.724h22.36c-.941-2.256-2.454-4.132-4.332-5.46a11.816 11.816 0 00-6.85-2.175c-2.538 0-4.881.793-6.823 2.166-1.894 1.338-3.408 3.227-4.356 5.47zm17.64 13.846c1.751-1.1 3.163-2.642 4.027-4.498H9.4a11.137 11.137 0 004.096 4.52c1.844 1.158 4.06 1.826 6.457 1.826 2.394 0 4.66-.669 6.537-1.848z"/></svg><svg viewBox="0 0 40 40" id="reply" xmlns="http://www.w3.org/2000/svg"><path d="M23.75 18.125h-7.192l.975-.968a.753.753 0 00-1.065-1.064l-2.25 2.25a.75.75 0 00-.158.247.75.75 0 000 .57.75.75 0 00.158.247l2.25 2.25a.75.75 0 001.229-.244.75.75 0 00-.164-.82l-.975-.968h7.192a.75.75 0 01.75.75v3a.75.75 0 101.5 0v-3a2.25 2.25 0 00-2.25-2.25z"/></svg><svg viewBox="0 0 36 37" id="telegram" xmlns="http://www.w3.org/2000/svg"><path d="M16.206 20.625l-.275 3.723c.394 0 .565-.163.77-.358l1.85-1.697 3.831 2.694c.703.376 1.198.178 1.388-.62l2.515-11.315v-.001c.224-.997-.375-1.387-1.06-1.143L10.44 17.342c-1.009.376-.993.916-.171 1.161l3.78 1.129 8.78-5.274c.413-.263.789-.118.48.145l-7.103 6.122z"/></svg><svg viewBox="0 0 36 37" id="whatsapp" xmlns="http://www.w3.org/2000/svg"><path d="M21.833 20.17c-.166-.083-1.25-.583-1.416-.666-.167-.083-.334-.083-.5.083-.167.167-.5.667-.667.834-.083.166-.25.166-.417.083a6.815 6.815 0 01-1.666-1A9.596 9.596 0 0116 18.087c-.083-.166 0-.333.083-.416.084-.084.167-.25.334-.334.083-.083.166-.25.166-.333a.254.254 0 000-.333c-.083-.084-.5-1.084-.666-1.5-.084-.584-.25-.584-.417-.584h-.417c-.166 0-.416.167-.5.25-.5.5-.75 1.084-.75 1.75.084.75.334 1.5.834 2.167.916 1.333 2.083 2.417 3.5 3.083.416.167.75.334 1.166.417.417.167.834.167 1.334.083.583-.083 1.083-.5 1.416-1 .167-.333.167-.666.084-1l-.334-.166zm2.084-7.583a8.299 8.299 0 00-11.75 0c-2.667 2.667-3.167 6.75-1.334 10l-1.166 4.25 4.416-1.166c1.25.666 2.584 1 3.917 1a8.216 8.216 0 008.25-8.25c.083-2.167-.833-4.25-2.333-5.834zm-2.25 11.667c-1.084.667-2.334 1.083-3.667 1.083-1.25 0-2.417-.333-3.5-.916l-.25-.167-2.583.667.666-2.5-.166-.25c-2-3.334-1-7.5 2.25-9.584 3.25-2.083 7.416-1 9.416 2.167 2 3.25 1.084 7.5-2.166 9.5z"/></svg></svg>